<mxfile host="app.diagrams.net" modified="2023-10-17T20:59:27.492Z" agent="Mozilla/5.0 (Windows NT 10.0; Win64; x64) AppleWebKit/537.36 (KHTML, like Gecko) Chrome/118.0.0.0 Safari/537.36" etag="mIBqBf3UMA5_xy7k4J-w" version="22.0.4" type="device">
  <diagram id="C5RBs43oDa-KdzZeNtuy" name="Page-1">
    <mxGraphModel dx="1595" dy="406" grid="1" gridSize="10" guides="1" tooltips="1" connect="1" arrows="1" fold="1" page="1" pageScale="1" pageWidth="827" pageHeight="1169" math="0" shadow="0">
      <root>
        <mxCell id="WIyWlLk6GJQsqaUBKTNV-0" />
        <mxCell id="WIyWlLk6GJQsqaUBKTNV-1" parent="WIyWlLk6GJQsqaUBKTNV-0" />
        <mxCell id="WIyWlLk6GJQsqaUBKTNV-3" value="&lt;b&gt;BaseModel&lt;/b&gt;" style="rounded=1;whiteSpace=wrap;html=1;fontSize=12;glass=0;strokeWidth=1;shadow=0;" parent="WIyWlLk6GJQsqaUBKTNV-1" vertex="1">
          <mxGeometry x="155" y="80" width="120" height="30" as="geometry" />
        </mxCell>
        <mxCell id="WIyWlLk6GJQsqaUBKTNV-7" value="&lt;b&gt;DataBase&lt;br&gt;&lt;/b&gt;&lt;font style=&quot;font-size: 10px;&quot;&gt;-Database connection&lt;/font&gt;" style="rounded=1;whiteSpace=wrap;html=1;fontSize=12;glass=0;strokeWidth=1;shadow=0;" parent="WIyWlLk6GJQsqaUBKTNV-1" vertex="1">
          <mxGeometry x="330" y="155" width="140" height="40" as="geometry" />
        </mxCell>
        <mxCell id="wHx3kB-Ha_2rwRLjCkzg-18" style="edgeStyle=orthogonalEdgeStyle;rounded=0;orthogonalLoop=1;jettySize=auto;html=1;exitX=0.5;exitY=0;exitDx=0;exitDy=0;endArrow=none;endFill=0;" edge="1" parent="WIyWlLk6GJQsqaUBKTNV-1" source="wHx3kB-Ha_2rwRLjCkzg-0" target="WIyWlLk6GJQsqaUBKTNV-3">
          <mxGeometry relative="1" as="geometry" />
        </mxCell>
        <mxCell id="wHx3kB-Ha_2rwRLjCkzg-19" style="edgeStyle=orthogonalEdgeStyle;rounded=0;orthogonalLoop=1;jettySize=auto;html=1;exitX=1;exitY=0.5;exitDx=0;exitDy=0;entryX=0;entryY=0.5;entryDx=0;entryDy=0;endArrow=none;endFill=0;" edge="1" parent="WIyWlLk6GJQsqaUBKTNV-1" source="wHx3kB-Ha_2rwRLjCkzg-0" target="WIyWlLk6GJQsqaUBKTNV-7">
          <mxGeometry relative="1" as="geometry" />
        </mxCell>
        <mxCell id="wHx3kB-Ha_2rwRLjCkzg-15" value="" style="shape=cylinder3;whiteSpace=wrap;html=1;boundedLbl=1;backgroundOutline=1;size=5.724137931034534;" vertex="1" parent="WIyWlLk6GJQsqaUBKTNV-1">
          <mxGeometry x="200" y="10" width="30" height="40" as="geometry" />
        </mxCell>
        <mxCell id="wHx3kB-Ha_2rwRLjCkzg-17" style="edgeStyle=orthogonalEdgeStyle;rounded=0;orthogonalLoop=1;jettySize=auto;html=1;exitX=0.5;exitY=0;exitDx=0;exitDy=0;entryX=0.5;entryY=1;entryDx=0;entryDy=0;entryPerimeter=0;endArrow=none;endFill=0;" edge="1" parent="WIyWlLk6GJQsqaUBKTNV-1" source="WIyWlLk6GJQsqaUBKTNV-3" target="wHx3kB-Ha_2rwRLjCkzg-15">
          <mxGeometry relative="1" as="geometry" />
        </mxCell>
        <mxCell id="wHx3kB-Ha_2rwRLjCkzg-41" style="edgeStyle=orthogonalEdgeStyle;rounded=0;orthogonalLoop=1;jettySize=auto;html=1;entryX=0.5;entryY=1;entryDx=0;entryDy=0;endArrow=none;endFill=0;" edge="1" parent="WIyWlLk6GJQsqaUBKTNV-1" source="wHx3kB-Ha_2rwRLjCkzg-20" target="wHx3kB-Ha_2rwRLjCkzg-0">
          <mxGeometry relative="1" as="geometry" />
        </mxCell>
        <mxCell id="wHx3kB-Ha_2rwRLjCkzg-48" style="edgeStyle=orthogonalEdgeStyle;rounded=0;orthogonalLoop=1;jettySize=auto;html=1;entryX=0;entryY=0.5;entryDx=0;entryDy=0;" edge="1" parent="WIyWlLk6GJQsqaUBKTNV-1" source="wHx3kB-Ha_2rwRLjCkzg-32" target="wHx3kB-Ha_2rwRLjCkzg-21">
          <mxGeometry relative="1" as="geometry" />
        </mxCell>
        <mxCell id="wHx3kB-Ha_2rwRLjCkzg-51" style="edgeStyle=orthogonalEdgeStyle;rounded=0;orthogonalLoop=1;jettySize=auto;html=1;exitX=0;exitY=0.5;exitDx=0;exitDy=0;endArrow=none;endFill=0;" edge="1" parent="WIyWlLk6GJQsqaUBKTNV-1" source="wHx3kB-Ha_2rwRLjCkzg-32" target="wHx3kB-Ha_2rwRLjCkzg-36">
          <mxGeometry relative="1" as="geometry" />
        </mxCell>
        <mxCell id="wHx3kB-Ha_2rwRLjCkzg-60" style="edgeStyle=orthogonalEdgeStyle;rounded=0;orthogonalLoop=1;jettySize=auto;html=1;entryX=0.5;entryY=1;entryDx=0;entryDy=0;endArrow=none;endFill=0;" edge="1" parent="WIyWlLk6GJQsqaUBKTNV-1" source="wHx3kB-Ha_2rwRLjCkzg-32" target="wHx3kB-Ha_2rwRLjCkzg-20">
          <mxGeometry relative="1" as="geometry" />
        </mxCell>
        <mxCell id="wHx3kB-Ha_2rwRLjCkzg-32" value="&lt;b&gt;index&lt;br&gt;&lt;/b&gt;&lt;font style=&quot;font-size: 10px;&quot;&gt;-Recibimiento de peticiones frontend.&lt;br&gt;-Guarda array objetos&lt;br&gt;&lt;/font&gt;" style="rounded=1;whiteSpace=wrap;html=1;fontSize=12;glass=0;strokeWidth=1;shadow=0;" vertex="1" parent="WIyWlLk6GJQsqaUBKTNV-1">
          <mxGeometry x="143" y="360" width="145" height="60" as="geometry" />
        </mxCell>
        <mxCell id="wHx3kB-Ha_2rwRLjCkzg-36" value="&lt;b&gt;Validator(NombreForm)&lt;br&gt;&lt;/b&gt;&lt;font style=&quot;font-size: 10px;&quot;&gt;-Valida datos recibidos.&lt;/font&gt;" style="rounded=1;whiteSpace=wrap;html=1;fontSize=12;glass=0;strokeWidth=1;shadow=0;" vertex="1" parent="WIyWlLk6GJQsqaUBKTNV-1">
          <mxGeometry x="-40" y="360" width="145" height="60" as="geometry" />
        </mxCell>
        <mxCell id="wHx3kB-Ha_2rwRLjCkzg-42" value="" style="group" vertex="1" connectable="0" parent="WIyWlLk6GJQsqaUBKTNV-1">
          <mxGeometry x="142.5" y="245" width="145.5" height="75" as="geometry" />
        </mxCell>
        <mxCell id="wHx3kB-Ha_2rwRLjCkzg-20" value="&lt;b&gt;Controller(ActionName)&lt;br&gt;&lt;/b&gt;&lt;font style=&quot;font-size: 10px;&quot;&gt;-Llama a los modelos necesarios desde autocargador.&lt;/font&gt;&lt;b&gt;&lt;br&gt;&lt;/b&gt;" style="rounded=1;whiteSpace=wrap;html=1;fontSize=12;glass=0;strokeWidth=1;shadow=0;" vertex="1" parent="wHx3kB-Ha_2rwRLjCkzg-42">
          <mxGeometry width="145" height="75" as="geometry" />
        </mxCell>
        <mxCell id="wHx3kB-Ha_2rwRLjCkzg-22" value="" style="shape=table;startSize=0;container=1;collapsible=0;childLayout=tableLayout;fontSize=16;" vertex="1" parent="wHx3kB-Ha_2rwRLjCkzg-42">
          <mxGeometry x="105.5" width="40" height="10" as="geometry" />
        </mxCell>
        <mxCell id="wHx3kB-Ha_2rwRLjCkzg-23" value="" style="shape=tableRow;horizontal=0;startSize=0;swimlaneHead=0;swimlaneBody=0;strokeColor=inherit;top=0;left=0;bottom=0;right=0;collapsible=0;dropTarget=0;fillColor=none;points=[[0,0.5],[1,0.5]];portConstraint=eastwest;fontSize=16;swimlaneLine=1;" vertex="1" parent="wHx3kB-Ha_2rwRLjCkzg-22">
          <mxGeometry width="40" height="10" as="geometry" />
        </mxCell>
        <mxCell id="wHx3kB-Ha_2rwRLjCkzg-24" value="" style="shape=partialRectangle;html=1;whiteSpace=wrap;connectable=0;strokeColor=inherit;overflow=hidden;fillColor=none;top=0;left=0;bottom=0;right=0;pointerEvents=1;fontSize=16;" vertex="1" parent="wHx3kB-Ha_2rwRLjCkzg-23">
          <mxGeometry width="14" height="10" as="geometry">
            <mxRectangle width="14" height="10" as="alternateBounds" />
          </mxGeometry>
        </mxCell>
        <mxCell id="wHx3kB-Ha_2rwRLjCkzg-25" value="" style="shape=partialRectangle;html=1;whiteSpace=wrap;connectable=0;strokeColor=inherit;overflow=hidden;fillColor=none;top=0;left=0;bottom=0;right=0;pointerEvents=1;fontSize=16;" vertex="1" parent="wHx3kB-Ha_2rwRLjCkzg-23">
          <mxGeometry x="14" width="12" height="10" as="geometry">
            <mxRectangle width="12" height="10" as="alternateBounds" />
          </mxGeometry>
        </mxCell>
        <mxCell id="wHx3kB-Ha_2rwRLjCkzg-26" value="" style="shape=partialRectangle;html=1;whiteSpace=wrap;connectable=0;strokeColor=inherit;overflow=hidden;fillColor=none;top=0;left=0;bottom=0;right=0;pointerEvents=1;fontSize=16;" vertex="1" parent="wHx3kB-Ha_2rwRLjCkzg-23">
          <mxGeometry x="26" width="14" height="10" as="geometry">
            <mxRectangle width="14" height="10" as="alternateBounds" />
          </mxGeometry>
        </mxCell>
        <mxCell id="wHx3kB-Ha_2rwRLjCkzg-43" value="" style="group" vertex="1" connectable="0" parent="WIyWlLk6GJQsqaUBKTNV-1">
          <mxGeometry x="390" y="300" width="120" height="70.5" as="geometry" />
        </mxCell>
        <mxCell id="wHx3kB-Ha_2rwRLjCkzg-21" value="&lt;b&gt;Entity(TableName)&lt;br&gt;&lt;/b&gt;&lt;font style=&quot;font-size: 10px;&quot;&gt;-Representan una tabla en forma de class&lt;/font&gt;" style="rounded=1;whiteSpace=wrap;html=1;fontSize=12;glass=0;strokeWidth=1;shadow=0;" vertex="1" parent="wHx3kB-Ha_2rwRLjCkzg-43">
          <mxGeometry width="120" height="70" as="geometry" />
        </mxCell>
        <mxCell id="wHx3kB-Ha_2rwRLjCkzg-27" value="" style="shape=table;startSize=0;container=1;collapsible=0;childLayout=tableLayout;fontSize=16;" vertex="1" parent="wHx3kB-Ha_2rwRLjCkzg-43">
          <mxGeometry x="80" y="0.5" width="40" height="10" as="geometry" />
        </mxCell>
        <mxCell id="wHx3kB-Ha_2rwRLjCkzg-28" value="" style="shape=tableRow;horizontal=0;startSize=0;swimlaneHead=0;swimlaneBody=0;strokeColor=inherit;top=0;left=0;bottom=0;right=0;collapsible=0;dropTarget=0;fillColor=none;points=[[0,0.5],[1,0.5]];portConstraint=eastwest;fontSize=16;swimlaneLine=1;" vertex="1" parent="wHx3kB-Ha_2rwRLjCkzg-27">
          <mxGeometry width="40" height="10" as="geometry" />
        </mxCell>
        <mxCell id="wHx3kB-Ha_2rwRLjCkzg-29" value="" style="shape=partialRectangle;html=1;whiteSpace=wrap;connectable=0;strokeColor=inherit;overflow=hidden;fillColor=none;top=0;left=0;bottom=0;right=0;pointerEvents=1;fontSize=16;" vertex="1" parent="wHx3kB-Ha_2rwRLjCkzg-28">
          <mxGeometry width="14" height="10" as="geometry">
            <mxRectangle width="14" height="10" as="alternateBounds" />
          </mxGeometry>
        </mxCell>
        <mxCell id="wHx3kB-Ha_2rwRLjCkzg-30" value="" style="shape=partialRectangle;html=1;whiteSpace=wrap;connectable=0;strokeColor=inherit;overflow=hidden;fillColor=none;top=0;left=0;bottom=0;right=0;pointerEvents=1;fontSize=16;" vertex="1" parent="wHx3kB-Ha_2rwRLjCkzg-28">
          <mxGeometry x="14" width="12" height="10" as="geometry">
            <mxRectangle width="12" height="10" as="alternateBounds" />
          </mxGeometry>
        </mxCell>
        <mxCell id="wHx3kB-Ha_2rwRLjCkzg-31" value="" style="shape=partialRectangle;html=1;whiteSpace=wrap;connectable=0;strokeColor=inherit;overflow=hidden;fillColor=none;top=0;left=0;bottom=0;right=0;pointerEvents=1;fontSize=16;" vertex="1" parent="wHx3kB-Ha_2rwRLjCkzg-28">
          <mxGeometry x="26" width="14" height="10" as="geometry">
            <mxRectangle width="14" height="10" as="alternateBounds" />
          </mxGeometry>
        </mxCell>
        <mxCell id="wHx3kB-Ha_2rwRLjCkzg-44" value="" style="group" vertex="1" connectable="0" parent="WIyWlLk6GJQsqaUBKTNV-1">
          <mxGeometry x="155" y="150" width="120" height="50" as="geometry" />
        </mxCell>
        <mxCell id="wHx3kB-Ha_2rwRLjCkzg-0" value="&lt;b&gt;Model(TableName)&lt;/b&gt;" style="rounded=1;whiteSpace=wrap;html=1;fontSize=12;glass=0;strokeWidth=1;shadow=0;" vertex="1" parent="wHx3kB-Ha_2rwRLjCkzg-44">
          <mxGeometry width="120" height="50" as="geometry" />
        </mxCell>
        <mxCell id="wHx3kB-Ha_2rwRLjCkzg-2" value="" style="shape=table;startSize=0;container=1;collapsible=0;childLayout=tableLayout;fontSize=16;" vertex="1" parent="wHx3kB-Ha_2rwRLjCkzg-44">
          <mxGeometry x="80" width="40" height="10" as="geometry" />
        </mxCell>
        <mxCell id="wHx3kB-Ha_2rwRLjCkzg-3" value="" style="shape=tableRow;horizontal=0;startSize=0;swimlaneHead=0;swimlaneBody=0;strokeColor=inherit;top=0;left=0;bottom=0;right=0;collapsible=0;dropTarget=0;fillColor=none;points=[[0,0.5],[1,0.5]];portConstraint=eastwest;fontSize=16;swimlaneLine=1;" vertex="1" parent="wHx3kB-Ha_2rwRLjCkzg-2">
          <mxGeometry width="40" height="10" as="geometry" />
        </mxCell>
        <mxCell id="wHx3kB-Ha_2rwRLjCkzg-4" value="" style="shape=partialRectangle;html=1;whiteSpace=wrap;connectable=0;strokeColor=inherit;overflow=hidden;fillColor=none;top=0;left=0;bottom=0;right=0;pointerEvents=1;fontSize=16;" vertex="1" parent="wHx3kB-Ha_2rwRLjCkzg-3">
          <mxGeometry width="14" height="10" as="geometry">
            <mxRectangle width="14" height="10" as="alternateBounds" />
          </mxGeometry>
        </mxCell>
        <mxCell id="wHx3kB-Ha_2rwRLjCkzg-5" value="" style="shape=partialRectangle;html=1;whiteSpace=wrap;connectable=0;strokeColor=inherit;overflow=hidden;fillColor=none;top=0;left=0;bottom=0;right=0;pointerEvents=1;fontSize=16;" vertex="1" parent="wHx3kB-Ha_2rwRLjCkzg-3">
          <mxGeometry x="14" width="12" height="10" as="geometry">
            <mxRectangle width="12" height="10" as="alternateBounds" />
          </mxGeometry>
        </mxCell>
        <mxCell id="wHx3kB-Ha_2rwRLjCkzg-6" value="" style="shape=partialRectangle;html=1;whiteSpace=wrap;connectable=0;strokeColor=inherit;overflow=hidden;fillColor=none;top=0;left=0;bottom=0;right=0;pointerEvents=1;fontSize=16;" vertex="1" parent="wHx3kB-Ha_2rwRLjCkzg-3">
          <mxGeometry x="26" width="14" height="10" as="geometry">
            <mxRectangle width="14" height="10" as="alternateBounds" />
          </mxGeometry>
        </mxCell>
        <mxCell id="wHx3kB-Ha_2rwRLjCkzg-45" value="MVC" style="text;html=1;align=center;verticalAlign=middle;resizable=0;points=[];autosize=1;strokeColor=#d79b00;fillColor=#ffe6cc;fontStyle=1;horizontal=1;" vertex="1" parent="WIyWlLk6GJQsqaUBKTNV-1">
          <mxGeometry y="40" width="50" height="30" as="geometry" />
        </mxCell>
        <mxCell id="wHx3kB-Ha_2rwRLjCkzg-50" value="-los controller contienen los métodos justos que&lt;br&gt;se usarán.&lt;br&gt;-Los archivos y class controller &lt;br&gt;deben llamarse igual para el auto cargador" style="text;strokeColor=none;fillColor=none;html=1;fontSize=14;fontStyle=1;verticalAlign=middle;align=center;" vertex="1" parent="WIyWlLk6GJQsqaUBKTNV-1">
          <mxGeometry x="-270" y="80" width="327.5" height="120" as="geometry" />
        </mxCell>
        <mxCell id="wHx3kB-Ha_2rwRLjCkzg-56" style="edgeStyle=orthogonalEdgeStyle;rounded=0;orthogonalLoop=1;jettySize=auto;html=1;exitX=1;exitY=0.5;exitDx=0;exitDy=0;entryX=0;entryY=0.5;entryDx=0;entryDy=0;" edge="1" parent="WIyWlLk6GJQsqaUBKTNV-1" source="wHx3kB-Ha_2rwRLjCkzg-20" target="wHx3kB-Ha_2rwRLjCkzg-21">
          <mxGeometry relative="1" as="geometry" />
        </mxCell>
      </root>
    </mxGraphModel>
  </diagram>
</mxfile>
